# xmcd CD database file
#
# Track frame offsets:
#	150
#	5647
#	22167
#	54102
#	70129
#	86992
#	114138
#	133283
#	141392
#	160183
#	201735
#	207203
#	229441
#	298857
#	305208
#	315151
#	325974
#
# Disc length: 4444 seconds
#
# Revision: 0
# Processed by: cddbd v1.5.2PL0 Copyright (c) Steve Scherf et al.
# Submitted via: CDex 1.51
#
DISCID=09115a11
DTITLE=Esther and Jerry Hicks - The Law Of Attraction [CD4]
DYEAR=2006
DGENRE=New Age
TTITLE0=The Law Of Allowing
TTITLE1=The Law Of Allowing Introduction
TTITLE2=The Nature Of The Laws
TTITLE3=Controlling Your Thoughts
TTITLE4=The Law Of Allowing
TTITLE5=Positive And Negative Emotion
TTITLE6=Law Of Allowing Questions
TTITLE7=Intentions
TTITLE8=Expectations
TTITLE9=Television
TTITLE10=Wealth
TTITLE11=Relationships
TTITLE12=Rights
TTITLE13=A Child's Thoughts
TTITLE14=Interference
TTITLE15=I Want To See
TTITLE16=State Of Positive Emotion
EXTD=YEAR: 2006
EXTT0=
EXTT1=
EXTT2=
EXTT3=
EXTT4=
EXTT5=
EXTT6=
EXTT7=
EXTT8=
EXTT9=
EXTT10=
EXTT11=
EXTT12=
EXTT13=
EXTT14=
EXTT15=
EXTT16=
PLAYORDER=
